<mxfile host="app.diagrams.net" modified="2023-08-27T16:58:52.457Z" agent="Mozilla/5.0 (X11; Linux x86_64) AppleWebKit/537.36 (KHTML, like Gecko) Chrome/116.0.0.0 Safari/537.36" etag="g8suZrw9sNXW2fiHcMB6" version="21.6.9" type="device">
  <diagram name="Página-1" id="WjvzGKE3d6Izgvb9rn6n">
    <mxGraphModel dx="1354" dy="860" grid="1" gridSize="10" guides="1" tooltips="1" connect="1" arrows="1" fold="1" page="1" pageScale="1" pageWidth="1169" pageHeight="827" math="0" shadow="0">
      <root>
        <mxCell id="0" />
        <mxCell id="1" parent="0" />
        <mxCell id="Ot98iUM6ejuoFUxjJnlP-58" value="" style="group;fontSize=20;" vertex="1" connectable="0" parent="1">
          <mxGeometry x="80" y="120" width="980" height="650" as="geometry" />
        </mxCell>
        <mxCell id="Ot98iUM6ejuoFUxjJnlP-1" value="&lt;font style=&quot;font-size: 20px;&quot;&gt;Clientes&lt;/font&gt;" style="whiteSpace=wrap;html=1;align=center;fontSize=20;" vertex="1" parent="Ot98iUM6ejuoFUxjJnlP-58">
          <mxGeometry x="131.46341463414635" y="60.714285714285715" width="143.41463414634146" height="85.71428571428572" as="geometry" />
        </mxCell>
        <mxCell id="Ot98iUM6ejuoFUxjJnlP-2" value="&lt;font style=&quot;font-size: 20px;&quot;&gt;Pasajes&lt;/font&gt;" style="whiteSpace=wrap;html=1;align=center;fontSize=20;" vertex="1" parent="Ot98iUM6ejuoFUxjJnlP-58">
          <mxGeometry x="705.1219512195122" y="57.142857142857146" width="143.41463414634146" height="85.71428571428572" as="geometry" />
        </mxCell>
        <mxCell id="Ot98iUM6ejuoFUxjJnlP-3" value="&lt;font style=&quot;font-size: 20px;&quot;&gt;Vuelos&lt;/font&gt;" style="whiteSpace=wrap;html=1;align=center;fontSize=20;" vertex="1" parent="Ot98iUM6ejuoFUxjJnlP-58">
          <mxGeometry x="430.2439024390244" y="285.7142857142857" width="143.41463414634146" height="85.71428571428572" as="geometry" />
        </mxCell>
        <mxCell id="Ot98iUM6ejuoFUxjJnlP-5" value="&lt;b style=&quot;font-size: 20px;&quot;&gt;codÚnico&lt;/b&gt;" style="text;html=1;strokeColor=none;fillColor=none;align=center;verticalAlign=middle;whiteSpace=wrap;rounded=0;fontSize=20;" vertex="1" parent="Ot98iUM6ejuoFUxjJnlP-58">
          <mxGeometry x="11.951219512195122" width="107.5609756097561" height="42.85714285714286" as="geometry" />
        </mxCell>
        <mxCell id="Ot98iUM6ejuoFUxjJnlP-6" value="&lt;b style=&quot;font-size: 20px;&quot;&gt;DNI&lt;/b&gt;" style="text;html=1;strokeColor=none;fillColor=none;align=center;verticalAlign=middle;whiteSpace=wrap;rounded=0;fontSize=20;" vertex="1" parent="Ot98iUM6ejuoFUxjJnlP-58">
          <mxGeometry x="11.951219512195122" y="35.714285714285715" width="107.5609756097561" height="42.85714285714286" as="geometry" />
        </mxCell>
        <mxCell id="Ot98iUM6ejuoFUxjJnlP-7" value="nombre" style="text;html=1;strokeColor=none;fillColor=none;align=center;verticalAlign=middle;whiteSpace=wrap;rounded=0;fontSize=20;" vertex="1" parent="Ot98iUM6ejuoFUxjJnlP-58">
          <mxGeometry x="11.951219512195122" y="78.57142857142857" width="107.5609756097561" height="42.85714285714286" as="geometry" />
        </mxCell>
        <mxCell id="Ot98iUM6ejuoFUxjJnlP-8" value="apellido" style="text;html=1;strokeColor=none;fillColor=none;align=center;verticalAlign=middle;whiteSpace=wrap;rounded=0;fontSize=20;" vertex="1" parent="Ot98iUM6ejuoFUxjJnlP-58">
          <mxGeometry x="11.951219512195122" y="121.42857142857143" width="107.5609756097561" height="42.85714285714286" as="geometry" />
        </mxCell>
        <mxCell id="Ot98iUM6ejuoFUxjJnlP-9" value="nombre" style="text;html=1;strokeColor=none;fillColor=none;align=center;verticalAlign=middle;whiteSpace=wrap;rounded=0;fontSize=20;rotation=90;" vertex="1" parent="Ot98iUM6ejuoFUxjJnlP-58">
          <mxGeometry x="396.780487804878" y="530" width="107.5609756097561" height="42.85714285714286" as="geometry" />
        </mxCell>
        <mxCell id="Ot98iUM6ejuoFUxjJnlP-10" value="fechaSalida" style="text;html=1;strokeColor=none;fillColor=none;align=center;verticalAlign=middle;whiteSpace=wrap;rounded=0;fontSize=20;rotation=90;" vertex="1" parent="Ot98iUM6ejuoFUxjJnlP-58">
          <mxGeometry x="289.2195121951219" y="542.8571428571429" width="143.41463414634146" height="42.85714285714286" as="geometry" />
        </mxCell>
        <mxCell id="Ot98iUM6ejuoFUxjJnlP-11" value="hora" style="text;html=1;strokeColor=none;fillColor=none;align=center;verticalAlign=middle;whiteSpace=wrap;rounded=0;fontSize=20;rotation=90;" vertex="1" parent="Ot98iUM6ejuoFUxjJnlP-58">
          <mxGeometry x="352.5609756097561" y="522.8571428571429" width="107.5609756097561" height="42.85714285714286" as="geometry" />
        </mxCell>
        <mxCell id="Ot98iUM6ejuoFUxjJnlP-13" value="&lt;font style=&quot;font-size: 20px;&quot;&gt;origen&lt;/font&gt;" style="ellipse;whiteSpace=wrap;html=1;align=center;fontSize=20;" vertex="1" parent="Ot98iUM6ejuoFUxjJnlP-58">
          <mxGeometry x="346.5853658536585" y="430" width="119.51219512195121" height="57.142857142857146" as="geometry" />
        </mxCell>
        <mxCell id="Ot98iUM6ejuoFUxjJnlP-14" value="&lt;font style=&quot;font-size: 20px;&quot;&gt;destino&lt;/font&gt;" style="ellipse;whiteSpace=wrap;html=1;align=center;fontSize=20;" vertex="1" parent="Ot98iUM6ejuoFUxjJnlP-58">
          <mxGeometry x="531.8292682926829" y="430" width="119.51219512195121" height="57.142857142857146" as="geometry" />
        </mxCell>
        <mxCell id="Ot98iUM6ejuoFUxjJnlP-16" value="nombre" style="text;html=1;strokeColor=none;fillColor=none;align=center;verticalAlign=middle;whiteSpace=wrap;rounded=0;fontSize=20;rotation=90;" vertex="1" parent="Ot98iUM6ejuoFUxjJnlP-58">
          <mxGeometry x="501.9512195121951" y="530" width="107.5609756097561" height="42.85714285714286" as="geometry" />
        </mxCell>
        <mxCell id="Ot98iUM6ejuoFUxjJnlP-17" value="fechaLlegada" style="text;html=1;strokeColor=none;fillColor=none;align=center;verticalAlign=middle;whiteSpace=wrap;rounded=0;fontSize=20;rotation=90;" vertex="1" parent="Ot98iUM6ejuoFUxjJnlP-58">
          <mxGeometry x="597.560975609756" y="550" width="107.5609756097561" height="42.85714285714286" as="geometry" />
        </mxCell>
        <mxCell id="Ot98iUM6ejuoFUxjJnlP-18" value="hora" style="text;html=1;strokeColor=none;fillColor=none;align=center;verticalAlign=middle;whiteSpace=wrap;rounded=0;fontSize=20;rotation=90;" vertex="1" parent="Ot98iUM6ejuoFUxjJnlP-58">
          <mxGeometry x="549.7560975609756" y="511.42857142857144" width="107.5609756097561" height="42.85714285714286" as="geometry" />
        </mxCell>
        <mxCell id="Ot98iUM6ejuoFUxjJnlP-20" value="aerolínea" style="text;html=1;strokeColor=none;fillColor=none;align=center;verticalAlign=middle;whiteSpace=wrap;rounded=0;fontSize=20;rotation=0;" vertex="1" parent="Ot98iUM6ejuoFUxjJnlP-58">
          <mxGeometry x="304.7560975609756" y="290" width="107.5609756097561" height="42.85714285714286" as="geometry" />
        </mxCell>
        <mxCell id="Ot98iUM6ejuoFUxjJnlP-21" value="númeroVuelo" style="text;html=1;strokeColor=none;fillColor=none;align=center;verticalAlign=middle;whiteSpace=wrap;rounded=0;fontSize=20;rotation=0;" vertex="1" parent="Ot98iUM6ejuoFUxjJnlP-58">
          <mxGeometry x="272.4878048780488" y="334.2857142857143" width="143.41463414634146" height="42.85714285714286" as="geometry" />
        </mxCell>
        <mxCell id="Ot98iUM6ejuoFUxjJnlP-31" value="" style="shape=waypoint;sketch=0;fillStyle=solid;size=16;pointerEvents=1;points=[];fillColor=none;resizable=0;rotatable=0;perimeter=centerPerimeter;snapToPoint=1;fontSize=20;fontStyle=0;spacing=2;perimeterSpacing=0;" vertex="1" parent="Ot98iUM6ejuoFUxjJnlP-58">
          <mxGeometry x="311.9268292682927" y="507.14285714285717" width="20" height="20" as="geometry" />
        </mxCell>
        <mxCell id="Ot98iUM6ejuoFUxjJnlP-33" value="" style="shape=waypoint;sketch=0;fillStyle=solid;size=16;pointerEvents=1;points=[];fillColor=none;resizable=0;rotatable=0;perimeter=centerPerimeter;snapToPoint=1;fontSize=20;fontStyle=0;spacing=2;perimeterSpacing=0;" vertex="1" parent="Ot98iUM6ejuoFUxjJnlP-58">
          <mxGeometry x="309.5365853658536" y="377.14285714285717" width="20" height="20" as="geometry" />
        </mxCell>
        <mxCell id="Ot98iUM6ejuoFUxjJnlP-35" value="númeroFila" style="text;html=1;strokeColor=none;fillColor=none;align=center;verticalAlign=middle;whiteSpace=wrap;rounded=0;fontSize=20;" vertex="1" parent="Ot98iUM6ejuoFUxjJnlP-58">
          <mxGeometry x="872.4390243902438" y="57.142857142857146" width="107.5609756097561" height="42.85714285714286" as="geometry" />
        </mxCell>
        <mxCell id="Ot98iUM6ejuoFUxjJnlP-36" value="butaca" style="text;html=1;strokeColor=none;fillColor=none;align=center;verticalAlign=middle;whiteSpace=wrap;rounded=0;fontSize=20;" vertex="1" parent="Ot98iUM6ejuoFUxjJnlP-58">
          <mxGeometry x="858.0975609756097" y="102.85714285714286" width="107.5609756097561" height="42.85714285714286" as="geometry" />
        </mxCell>
        <mxCell id="Ot98iUM6ejuoFUxjJnlP-38" value="&lt;font style=&quot;font-size: 20px;&quot;&gt;corresponde&lt;/font&gt;" style="shape=rhombus;perimeter=rhombusPerimeter;whiteSpace=wrap;html=1;align=center;fontSize=20;" vertex="1" parent="Ot98iUM6ejuoFUxjJnlP-58">
          <mxGeometry x="687.1951219512194" y="285.7142857142857" width="185.2439024390244" height="85.71428571428572" as="geometry" />
        </mxCell>
        <mxCell id="Ot98iUM6ejuoFUxjJnlP-40" value="" style="endArrow=none;html=1;rounded=0;fontSize=20;" edge="1" parent="Ot98iUM6ejuoFUxjJnlP-58" source="Ot98iUM6ejuoFUxjJnlP-2" target="Ot98iUM6ejuoFUxjJnlP-38">
          <mxGeometry relative="1" as="geometry">
            <mxPoint x="501.9512195121951" y="457.14285714285717" as="sourcePoint" />
            <mxPoint x="693.170731707317" y="457.14285714285717" as="targetPoint" />
          </mxGeometry>
        </mxCell>
        <mxCell id="Ot98iUM6ejuoFUxjJnlP-41" value="" style="endArrow=none;html=1;rounded=0;fontSize=20;" edge="1" parent="Ot98iUM6ejuoFUxjJnlP-58" source="Ot98iUM6ejuoFUxjJnlP-38" target="Ot98iUM6ejuoFUxjJnlP-3">
          <mxGeometry relative="1" as="geometry">
            <mxPoint x="846.1463414634146" y="365.7142857142857" as="sourcePoint" />
            <mxPoint x="848.5365853658536" y="508.57142857142856" as="targetPoint" />
          </mxGeometry>
        </mxCell>
        <mxCell id="Ot98iUM6ejuoFUxjJnlP-42" value="&lt;font style=&quot;font-size: 20px;&quot;&gt;compra&lt;/font&gt;" style="shape=rhombus;perimeter=rhombusPerimeter;whiteSpace=wrap;html=1;align=center;fontSize=20;" vertex="1" parent="Ot98iUM6ejuoFUxjJnlP-58">
          <mxGeometry x="466.0975609756097" y="57.142857142857146" width="107.5609756097561" height="85.71428571428572" as="geometry" />
        </mxCell>
        <mxCell id="Ot98iUM6ejuoFUxjJnlP-43" value="" style="endArrow=none;html=1;rounded=0;exitX=1;exitY=0.5;exitDx=0;exitDy=0;entryX=0;entryY=0.5;entryDx=0;entryDy=0;fontSize=20;" edge="1" parent="Ot98iUM6ejuoFUxjJnlP-58" source="Ot98iUM6ejuoFUxjJnlP-1" target="Ot98iUM6ejuoFUxjJnlP-42">
          <mxGeometry relative="1" as="geometry">
            <mxPoint x="860.4878048780488" y="157.14285714285714" as="sourcePoint" />
            <mxPoint x="862.8780487804878" y="300" as="targetPoint" />
          </mxGeometry>
        </mxCell>
        <mxCell id="Ot98iUM6ejuoFUxjJnlP-44" value="" style="endArrow=none;html=1;rounded=0;exitX=1;exitY=0.5;exitDx=0;exitDy=0;entryX=0;entryY=0.5;entryDx=0;entryDy=0;fontSize=20;" edge="1" parent="Ot98iUM6ejuoFUxjJnlP-58" source="Ot98iUM6ejuoFUxjJnlP-42" target="Ot98iUM6ejuoFUxjJnlP-2">
          <mxGeometry relative="1" as="geometry">
            <mxPoint x="286.8292682926829" y="118.57142857142857" as="sourcePoint" />
            <mxPoint x="478.04878048780483" y="114.28571428571429" as="targetPoint" />
          </mxGeometry>
        </mxCell>
        <mxCell id="Ot98iUM6ejuoFUxjJnlP-45" value="" style="endArrow=none;html=1;rounded=0;fontSize=20;" edge="1" parent="Ot98iUM6ejuoFUxjJnlP-58" source="Ot98iUM6ejuoFUxjJnlP-3" target="Ot98iUM6ejuoFUxjJnlP-14">
          <mxGeometry relative="1" as="geometry">
            <mxPoint x="537.8048780487804" y="50" as="sourcePoint" />
            <mxPoint x="740.9756097560976" y="50" as="targetPoint" />
          </mxGeometry>
        </mxCell>
        <mxCell id="Ot98iUM6ejuoFUxjJnlP-46" value="" style="endArrow=none;html=1;rounded=0;fontSize=20;" edge="1" parent="Ot98iUM6ejuoFUxjJnlP-58" source="Ot98iUM6ejuoFUxjJnlP-3" target="Ot98iUM6ejuoFUxjJnlP-13">
          <mxGeometry relative="1" as="geometry">
            <mxPoint x="884.390243902439" y="474.2857142857143" as="sourcePoint" />
            <mxPoint x="936.9756097560975" y="450" as="targetPoint" />
          </mxGeometry>
        </mxCell>
        <mxCell id="Ot98iUM6ejuoFUxjJnlP-47" value="(0,N)" style="text;html=1;strokeColor=none;fillColor=none;align=center;verticalAlign=middle;whiteSpace=wrap;rounded=0;fontSize=20;" vertex="1" parent="Ot98iUM6ejuoFUxjJnlP-58">
          <mxGeometry x="280.8536585365853" y="57.142857142857146" width="47.80487804878049" height="42.85714285714286" as="geometry" />
        </mxCell>
        <mxCell id="Ot98iUM6ejuoFUxjJnlP-48" value="(1,1)" style="text;html=1;strokeColor=none;fillColor=none;align=center;verticalAlign=middle;whiteSpace=wrap;rounded=0;fontSize=20;" vertex="1" parent="Ot98iUM6ejuoFUxjJnlP-58">
          <mxGeometry x="657.3170731707316" y="53.57142857142857" width="47.80487804878049" height="42.85714285714286" as="geometry" />
        </mxCell>
        <mxCell id="Ot98iUM6ejuoFUxjJnlP-49" value="nacionalidad" style="text;html=1;strokeColor=none;fillColor=none;align=center;verticalAlign=middle;whiteSpace=wrap;rounded=0;fontSize=20;" vertex="1" parent="Ot98iUM6ejuoFUxjJnlP-58">
          <mxGeometry y="164.28571428571428" width="131.46341463414635" height="42.85714285714286" as="geometry" />
        </mxCell>
        <mxCell id="Ot98iUM6ejuoFUxjJnlP-50" value="fechaNacimiento" style="text;html=1;strokeColor=none;fillColor=none;align=center;verticalAlign=middle;whiteSpace=wrap;rounded=0;fontSize=20;" vertex="1" parent="Ot98iUM6ejuoFUxjJnlP-58">
          <mxGeometry y="207.14285714285714" width="179.2682926829268" height="42.85714285714286" as="geometry" />
        </mxCell>
        <mxCell id="Ot98iUM6ejuoFUxjJnlP-55" value="" style="endArrow=none;html=1;rounded=0;fontSize=20;entryX=0.108;entryY=0.462;entryDx=0;entryDy=0;entryPerimeter=0;" edge="1" parent="Ot98iUM6ejuoFUxjJnlP-58" source="Ot98iUM6ejuoFUxjJnlP-33" target="Ot98iUM6ejuoFUxjJnlP-31">
          <mxGeometry relative="1" as="geometry">
            <mxPoint x="482.8292682926829" y="385.7142857142857" as="sourcePoint" />
            <mxPoint x="438.60975609756093" y="445.7142857142857" as="targetPoint" />
          </mxGeometry>
        </mxCell>
        <mxCell id="Ot98iUM6ejuoFUxjJnlP-56" value="(1,1)" style="text;html=1;strokeColor=none;fillColor=none;align=center;verticalAlign=middle;whiteSpace=wrap;rounded=0;fontSize=20;" vertex="1" parent="Ot98iUM6ejuoFUxjJnlP-58">
          <mxGeometry x="729.0243902439024" y="142.14285714285714" width="47.80487804878049" height="42.85714285714286" as="geometry" />
        </mxCell>
        <mxCell id="Ot98iUM6ejuoFUxjJnlP-57" value="(1,N)" style="text;html=1;strokeColor=none;fillColor=none;align=center;verticalAlign=middle;whiteSpace=wrap;rounded=0;fontSize=20;" vertex="1" parent="Ot98iUM6ejuoFUxjJnlP-58">
          <mxGeometry x="573.6585365853658" y="285.7142857142857" width="47.80487804878049" height="42.85714285714286" as="geometry" />
        </mxCell>
      </root>
    </mxGraphModel>
  </diagram>
</mxfile>
